<svg width="30" height="30" viewBox="0 0 30 30" fill="none" xmlns="http://www.w3.org/2000/svg">
<g clip-path="url(#clip0_219_27)">
<path d="M0 26.7969C4.91448 26.7969 8.89841 22.8129 8.89841 17.8985C8.89841 12.984 4.91448 9 0 9V15.2289C1.47433 15.2289 2.66951 16.4241 2.66951 17.8985C2.66951 19.3728 1.47433 20.568 0 20.568V26.7969Z" fill="#726BEA"/>
<path d="M29.763 11.7416C28.2424 11.2599 26.6231 11 24.943 11C16.1379 11 9 18.138 9 26.943C9 27.8268 9.07192 28.6938 9.21018 29.5384H19.1161C18.7625 28.7456 18.5659 27.8673 18.5659 26.943C18.5659 23.421 21.421 20.5658 24.943 20.5658C26.868 20.5658 28.5937 21.4187 29.763 22.7672V11.7416Z" fill="#A5B4FC"/>
<path d="M0 0C0.73774 6.67374 6.39579 11.8646 13.2662 11.8646C20.1365 11.8646 25.7946 6.67374 26.5323 0H16.9868C16.3975 1.4773 14.9537 2.52121 13.2662 2.52121C11.5786 2.52121 10.1349 1.4773 9.54549 0H0Z" fill="#4F46E5"/>
</g>
<defs>
<clipPath id="clip0_219_27">
<rect width="30" height="30" fill="white"/>
</clipPath>
</defs>
</svg>
